<svg width="1760" height="1540" xmlns="http://www.w3.org/2000/svg" xmlns:xlink="http://www.w3.org/1999/xlink" xml:space="preserve" overflow="hidden"><defs><clipPath id="clip0"><rect x="1097" y="490" width="1760" height="1540"/></clipPath></defs><g clip-path="url(#clip0)" transform="translate(-1097 -490)"><path d="M1317 1260 1317 930 2634.71 931.146C2635.47 1040.76 2636.24 1150.38 2637 1260L1317 1260ZM1317 1480 2633.56 1478.85 2637 1810 1317 1810 1317 1480ZM2635.85 1811.15 2635.85 1478.85 2635.85 1480C2636.24 1590 2636.62 1700 2637 1810L2635.85 1811.15ZM2637 1260C2637.04 1259.62 2637.08 1259.24 2637.12 1258.85 2636.71 1149.06 2634.01 1040.41 2633.59 930.619 2634.73 1040.41 2635.86 1150.21 2637 1260ZM1317 490C1195.66 490 1097 588.656 1097 710L1097 1810C1097 1931.34 1195.66 2030 1317 2030L2637 2030C2758.34 2030 2857 1931.34 2857 1810L2857 710C2857 588.656 2758.34 490 2637 490L1317 490Z" fill-rule="evenodd"/></g></svg>